<svg xmlns="http://www.w3.org/2000/svg" width="1000" height="900" viewBox="0 0 1000 900"><defs><linearGradient id="bg" x2="1" y2="1"><stop stop-color="#ddd1c1"/><stop offset="1" stop-color="#b77654"/></linearGradient><linearGradient id="orb" x2=".9" y2="1"><stop stop-color="#f6f3e9"/><stop offset=".45" stop-color="#ddd1c1"/><stop offset="1" stop-color="#603e32"/></linearGradient><filter id="shadow"><feGaussianBlur stdDeviation="35"/></filter><pattern id="grain" width="7" height="7" patternUnits="userSpaceOnUse"><circle cx="1" cy="1" r=".5" fill="#fff" opacity=".16"/></pattern></defs><rect width="1000" height="900" fill="url(#bg)"/><circle cx="840" cy="110" r="280" fill="#ffffff" opacity=".12"/><path d="M0 640 Q450 450 1000 620 V900 H0Z" fill="#603e32" opacity=".12"/><ellipse cx="525" cy="733" rx="220" ry="45" fill="#603e32" opacity=".35" filter="url(#shadow)"/><rect x="262" y="590" width="490" height="150" rx="20" fill="url(#orb)"/><ellipse cx="510" cy="590" rx="245" ry="55" fill="#ddd1c1"/><g transform="translate(490 360) rotate(-24)"><ellipse rx="175" ry="205" fill="url(#orb)"/><ellipse rx="93" ry="122" fill="#603e32"/><ellipse cx="14" cy="-4" rx="75" ry="107" fill="url(#bg)"/><path d="M-137 -126 C-220 50 -60 230 125 115" stroke="#f6f3e9" opacity=".35" stroke-width="7" fill="none"/></g><rect width="1000" height="900" fill="url(#grain)"/><text x="55" y="840" font-family="Arial" letter-spacing="5" font-size="12" fill="#603e32">YUGANTAR / CREATIVE STUDY 002</text></svg>
